<?xml version="1.0" standalone="no"?>
<!DOCTYPE svg PUBLIC "-//W3C//DTD SVG 20010904//EN"
 "http://www.w3.org/TR/2001/REC-SVG-20010904/DTD/svg10.dtd">
<svg version="1.0" xmlns="http://www.w3.org/2000/svg"
 width="408.000000pt" height="612.000000pt" viewBox="0 0 408.000000 612.000000"
 preserveAspectRatio="xMidYMid meet">
<metadata>
Created by potrace 1.16, written by Peter Selinger 2001-2019
</metadata>
<g transform="translate(0.000000,612.000000) scale(0.100000,-0.100000)"
fill="#000000" stroke="none">
<path d="M1195 4915 c-126 -23 -185 -64 -171 -117 3 -13 67 -90 142 -173 262
-289 244 -264 244 -332 l0 -61 -87 -78 c-49 -43 -102 -91 -119 -107 l-31 -28
-124 138 c-290 325 -328 363 -364 363 -37 0 -73 -38 -115 -120 -59 -117 -86
-329 -61 -476 15 -83 73 -210 129 -280 l41 -52 -26 -23 c-21 -21 -24 -30 -20
-69 7 -60 45 -93 139 -121 314 -91 499 -177 675 -311 69 -53 287 -320 1082
-1328 141 -179 277 -347 304 -373 27 -28 76 -62 115 -80 62 -30 75 -32 172
-32 99 0 110 2 171 32 165 82 268 270 238 436 -20 114 -48 157 -229 362 -92
105 -633 749 -968 1153 -241 291 -258 355 -203 746 44 310 41 371 -24 514
-139 302 -539 485 -910 417z m353 -85 c153 -37 280 -107 383 -212 73 -74 116
-159 135 -269 15 -85 14 -105 -16 -289 -5 -30 -16 -124 -26 -208 -17 -146 -17
-157 0 -244 9 -51 26 -110 37 -132 14 -30 16 -43 7 -53 -6 -7 -8 -16 -4 -20 3
-3 6 -1 6 5 0 23 18 12 43 -28 27 -39 21 -68 -6 -30 -13 18 -15 19 -21 5 -3
-9 -2 -14 3 -11 12 8 29 -16 26 -37 -2 -9 1 -15 6 -11 5 3 7 9 4 14 -3 5 0 12
6 15 11 8 25 -6 79 -75 19 -25 37 -47 40 -50 3 -3 25 -30 50 -60 25 -30 49
-58 55 -62 5 -4 7 -8 3 -8 -4 0 8 -15 25 -32 18 -18 53 -58 77 -88 25 -30 54
-65 65 -78 11 -13 19 -25 18 -27 -1 -2 15 -21 35 -42 20 -21 53 -58 72 -82 19
-24 40 -49 47 -56 19 -20 2 -27 -19 -8 -18 16 -58 30 -43 15 4 -4 12 -7 18 -7
7 0 13 -11 13 -24 1 -24 1 -24 -28 8 -16 18 -27 39 -24 46 3 8 0 12 -8 9 -6
-2 -27 14 -45 36 -28 35 -31 43 -19 58 11 15 11 15 -3 5 -13 -11 -19 -10 -33
5 -9 10 -13 22 -9 27 5 4 3 5 -3 2 -13 -8 -48 39 -49 65 0 9 -3 19 -7 23 -4 4
-4 14 0 23 5 15 4 15 -11 3 -16 -13 -16 -14 0 -27 10 -7 13 -14 7 -14 -5 0
-23 13 -39 30 -26 27 -27 31 -13 47 18 21 13 44 -8 36 -8 -3 -14 -9 -14 -14 0
-4 8 -5 18 -2 15 6 15 5 2 -11 -13 -17 -15 -17 -38 10 -12 16 -35 42 -50 57
-25 27 -26 29 -9 42 16 11 15 13 -9 13 -26 0 -64 34 -64 57 0 6 9 -1 20 -15
11 -14 20 -21 20 -16 0 5 8 2 18 -5 15 -13 16 -12 3 3 -7 10 -18 15 -24 11 -6
-4 -8 0 -4 11 4 10 3 15 -3 11 -6 -4 -14 4 -19 17 -7 17 -10 19 -10 6 -1 -10
-6 -18 -12 -18 -6 0 -9 8 -6 19 3 12 -1 18 -12 17 -9 0 -15 5 -13 12 1 8 -2
11 -7 8 -13 -8 -34 21 -25 35 4 7 3 9 -3 6 -11 -7 -125 126 -117 137 2 3 1 4
-3 1 -3 -3 -15 3 -25 12 -25 23 -115 34 -129 16 -7 -7 -17 -13 -23 -13 -7 0
-25 -13 -41 -30 -16 -16 -32 -30 -37 -30 -4 0 -25 -19 -47 -42 -51 -54 -67
-97 -52 -139 6 -17 8 -36 4 -42 -3 -5 -2 -7 4 -4 5 3 20 -12 34 -34 13 -22 39
-55 57 -75 29 -30 32 -37 20 -52 -12 -15 -11 -16 4 -4 14 11 19 10 32 -9 8
-12 12 -27 9 -32 -3 -6 -2 -7 4 -4 5 3 17 -3 27 -14 14 -17 15 -23 4 -37 -12
-15 -11 -16 4 -4 15 12 20 9 43 -27 17 -24 24 -45 19 -53 -6 -10 -5 -11 7 -1
22 18 46 -21 27 -45 -11 -15 -11 -15 3 -5 17 14 27 6 97 -83 36 -47 38 -54 17
-54 -8 0 -15 5 -15 12 0 6 -6 4 -13 -6 -12 -16 -16 -14 -47 26 -75 93 -98 126
-92 133 4 4 0 5 -8 3 -8 -1 -15 4 -15 12 0 8 7 14 15 12 11 -3 11 1 -3 16 -9
10 -24 19 -32 19 -15 0 -11 -11 6 -13 19 -3 20 -4 14 -15 -8 -13 -45 18 -45
38 0 7 -4 13 -9 13 -13 0 -157 189 -153 201 1 6 -1 8 -6 6 -4 -3 -34 22 -67
55 -33 33 -88 80 -122 106 -35 25 -63 50 -63 55 0 4 -4 5 -10 2 -5 -3 -10 -2
-10 2 0 5 -17 17 -38 26 -21 9 -48 26 -59 37 -12 11 -29 20 -38 20 -9 0 -28
12 -42 28 -15 15 -23 21 -18 13 4 -7 4 -12 -1 -9 -5 2 -28 12 -51 22 -25 10
-40 23 -36 29 3 6 1 7 -6 3 -16 -10 -102 24 -94 37 3 6 1 7 -5 3 -14 -8 -132
24 -132 36 0 5 -5 6 -10 3 -12 -7 -80 15 -80 26 0 13 43 38 54 32 6 -3 8 -2 3
2 -4 5 7 24 25 42 31 32 57 45 42 21 -4 -7 -3 -8 5 -4 6 4 9 11 6 16 -2 4 17
27 43 50 26 23 64 58 84 77 22 22 41 32 49 27 7 -4 10 -3 6 3 -5 8 19 32 169
166 38 34 41 35 58 19 17 -16 18 -16 5 5 -11 19 -9 24 22 49 19 16 59 53 89
84 49 48 58 63 71 120 20 83 12 103 -73 190 -143 148 -313 334 -316 346 -2 8
13 17 40 24 24 6 48 13 53 15 6 2 62 4 125 4 82 1 139 -5 198 -19z m-683 -591
c88 -100 178 -201 199 -226 l39 -45 -44 -38 c-24 -21 -47 -36 -52 -33 -4 2 -6
0 -5 -5 3 -9 -58 -66 -189 -180 -58 -50 -82 -63 -75 -41 1 5 -3 9 -9 9 -5 0
-7 5 -3 12 4 6 3 8 -4 4 -25 -15 -109 140 -131 242 -15 71 -13 214 3 282 26
105 73 201 99 199 7 0 84 -81 172 -180z m1089 -878 c9 -8 15 -20 12 -28 -3 -8
-2 -11 3 -8 9 5 71 -53 71 -67 0 -4 18 -28 41 -55 23 -26 50 -58 60 -71 11
-13 17 -28 13 -35 -4 -7 -4 -9 1 -5 11 11 36 -12 28 -25 -3 -5 -2 -7 4 -4 5 3
46 -39 92 -93 78 -94 91 -113 74 -107 -5 1 -7 6 -5 10 1 5 -2 6 -8 2 -8 -5 -8
-11 1 -21 6 -7 15 -11 20 -8 9 5 49 -34 117 -114 41 -49 52 -70 32 -57 -5 3
-10 4 -10 0 0 -3 12 -10 26 -15 18 -7 24 -15 20 -26 -3 -8 -2 -12 4 -9 13 8
136 -144 132 -164 -2 -12 -1 -13 6 -3 7 10 12 8 26 -7 10 -11 19 -27 20 -36 1
-9 22 -35 47 -58 24 -24 64 -67 89 -97 24 -30 48 -57 53 -58 4 -2 2 -11 -5
-20 -11 -13 -11 -14 0 -8 9 5 22 0 38 -15 25 -24 33 -45 12 -33 -7 4 -10 4 -6
0 3 -4 9 -7 12 -7 14 2 56 -44 52 -56 -3 -7 0 -15 6 -19 7 -5 8 -2 3 7 -4 8 1
5 12 -6 11 -11 19 -23 17 -27 -9 -14 50 9 60 24 10 16 -6 41 -64 106 -12 12
-18 22 -14 22 4 0 -5 9 -20 21 -14 11 -26 27 -26 35 0 8 -4 14 -10 14 -5 0
-10 7 -10 15 0 8 -3 14 -7 13 -8 -3 -93 84 -93 94 0 2 -22 29 -49 58 -41 45
-48 57 -38 69 10 12 9 13 -1 7 -17 -10 -55 23 -47 41 2 8 1 12 -4 9 -11 -7
-69 56 -68 76 1 35 77 5 77 -31 0 -9 5 -23 11 -31 8 -11 9 -9 3 10 -5 21 -1
19 25 -14 17 -21 28 -43 24 -49 -3 -6 -1 -7 5 -3 13 8 114 -113 105 -127 -3
-6 -1 -7 4 -4 6 4 28 -15 49 -41 22 -26 48 -57 59 -70 11 -13 20 -27 21 -30 0
-4 26 -34 58 -67 73 -77 80 -89 60 -109 -8 -9 -11 -16 -5 -16 5 0 14 7 19 16
7 12 28 -8 103 -96 110 -130 147 -195 150 -265 2 -56 -5 -110 -17 -140 -15
-39 -98 -116 -153 -142 -98 -48 -256 -34 -290 24 -6 10 -11 14 -11 9 0 -5 -7
-3 -15 4 -8 7 -12 17 -8 23 3 5 2 7 -4 4 -8 -5 -83 73 -83 87 0 3 -11 17 -25
32 -13 14 -22 31 -19 36 3 4 1 7 -4 6 -15 -5 -114 120 -106 133 4 7 3 9 -3 6
-14 -9 -47 29 -37 44 4 7 3 10 -3 6 -15 -9 -57 39 -50 57 4 9 1 13 -6 11 -14
-4 -60 50 -60 71 0 7 -3 11 -7 9 -4 -3 -32 27 -61 66 -30 39 -71 91 -93 115
-21 24 -35 44 -31 44 4 0 -3 11 -16 24 -54 53 -70 76 -63 87 4 7 3 9 -3 6 -11
-7 -160 171 -155 185 1 5 -5 11 -13 14 -8 3 -12 10 -9 15 3 5 -1 9 -9 9 -16 0
-52 48 -43 58 4 3 18 6 32 7 23 1 44 -22 146 -148 86 -108 116 -153 109 -161
-8 -9 -6 -12 8 -12 11 1 43 -30 85 -84 81 -105 77 -99 116 -144 28 -32 31 -38
19 -54 -12 -15 -12 -16 2 -4 14 10 21 7 45 -25 15 -21 41 -51 56 -68 16 -17
26 -37 22 -45 -3 -8 -2 -11 2 -7 4 4 22 -7 40 -24 58 -56 101 -13 49 50 -15
17 -25 31 -23 31 3 0 -15 21 -39 46 -24 26 -42 54 -41 63 2 8 -2 16 -7 16 -24
0 -189 210 -179 226 5 9 11 7 21 -6 7 -11 13 -14 13 -9 0 19 -23 34 -36 23 -9
-7 -20 0 -41 26 -15 20 -43 53 -60 73 -18 21 -31 43 -28 50 3 7 1 11 -4 7 -10
-6 -107 122 -104 136 2 5 -3 8 -10 6 -6 -1 -11 4 -9 11 1 8 -2 11 -7 8 -5 -3
-14 1 -21 9 -7 8 -10 15 -7 15 3 0 -5 11 -19 25 -14 14 -22 30 -19 35 4 6 1 9
-7 8 -7 -2 -12 3 -10 10 1 8 -2 11 -7 8 -5 -4 -13 -1 -16 4 -9 14 24 52 38 43
6 -4 7 -1 2 6 -5 9 -13 7 -30 -9 l-23 -22 -19 29 c-10 15 -30 42 -45 58 -65
74 -196 253 -190 260 4 5 1 4 -7 0 -11 -6 -13 -4 -8 7 3 10 0 15 -11 14 -10
-1 -16 6 -16 16 1 10 -2 16 -6 13 -11 -7 -33 22 -25 35 4 6 2 9 -5 8 -6 -2
-18 9 -27 23 -19 31 -11 84 12 75 9 -3 12 0 9 8 -6 17 22 40 40 33 9 -4 13 -1
10 7 -3 7 4 21 16 31 11 10 20 15 20 12 0 -4 9 2 20 13 23 23 58 23 84 1z"/>
<path d="M1505 3998 c-16 -15 -33 -28 -36 -28 -3 0 -25 -18 -48 -40 -24 -23
-47 -37 -54 -34 -7 4 -9 3 -4 -1 4 -5 0 -17 -10 -27 -18 -20 -38 -25 -27 -5 5
8 3 8 -9 -2 -9 -7 -15 -17 -12 -21 2 -4 -10 -20 -28 -35 -120 -105 -133 -121
-136 -167 -2 -44 1 -49 60 -114 140 -153 163 -173 207 -180 25 -4 39 -11 35
-17 -3 -6 -1 -7 6 -3 6 4 9 11 6 15 -5 9 44 36 58 32 5 -1 6 2 3 7 -3 5 5 17
17 27 69 57 143 121 148 129 4 4 12 5 18 2 7 -5 10 -2 9 6 -2 7 3 12 10 10 8
-1 11 1 8 6 -2 4 22 32 55 61 32 29 59 61 59 71 0 10 6 21 13 23 10 4 10 6 0
6 -7 1 -13 8 -13 17 0 9 -18 36 -40 61 -22 25 -37 50 -33 56 3 5 1 7 -4 4 -6
-4 -19 3 -29 15 -17 19 -17 21 -2 15 10 -3 19 -3 22 1 3 4 -5 9 -16 9 -32 3
-99 73 -93 98 3 11 2 14 -1 8 -4 -10 -11 -10 -27 -1 -51 27 -81 26 -112 -4z"/>
<path d="M3078 1886 c-25 -6 -50 -14 -54 -18 -3 -4 -16 -3 -26 3 -15 8 -23 8
-32 -1 -8 -8 -7 -10 5 -5 25 9 33 -12 10 -25 -11 -5 -28 -23 -37 -40 -10 -16
-20 -27 -24 -25 -7 4 -10 -19 -9 -95 0 -76 3 -109 9 -107 3 1 23 -16 45 -38
49 -48 51 -48 140 -53 64 -3 74 -1 115 27 67 44 93 96 87 174 -7 92 -9 98 -49
135 -21 19 -35 38 -32 43 3 5 2 9 -3 10 -41 3 -78 11 -87 17 -6 5 -32 4 -58
-2z m107 -116 c99 -93 -5 -253 -127 -196 -84 40 -89 144 -11 206 36 28 103 23
138 -10z"/>
</g>
</svg>
