<?xml version="1.0" standalone="no"?>
<!DOCTYPE svg PUBLIC "-//W3C//DTD SVG 20010904//EN"
 "http://www.w3.org/TR/2001/REC-SVG-20010904/DTD/svg10.dtd">
<svg version="1.0" xmlns="http://www.w3.org/2000/svg"
 width="225.000000pt" height="225.000000pt" viewBox="0 0 225.000000 225.000000"
 preserveAspectRatio="xMidYMid meet">

<g transform="translate(0.000000,225.000000) scale(0.100000,-0.100000)"
fill="#000000" stroke="none">
<path d="M1180 2123 c-66 -11 -177 -46 -229 -73 -60 -30 -71 -46 -71 -102 0
-33 -7 -37 -70 -45 -42 -5 -54 -2 -73 14 -37 33 -54 38 -25 7 33 -36 77 -164
85 -247 7 -77 -7 -96 -92 -132 -33 -14 -46 -23 -30 -20 61 13 109 48 133 98
20 41 28 49 67 59 46 12 54 21 33 34 -6 4 -8 3 -5 -3 6 -10 -70 -39 -79 -30
-6 6 -45 149 -47 174 -1 11 -5 19 -9 16 -5 -2 -8 0 -8 5 0 5 28 12 61 15 68 6
77 13 74 60 -3 44 9 64 56 88 42 21 81 22 41 0 -28 -15 -28 -37 -1 -52 26 -14
117 -4 216 23 40 10 78 16 85 12 7 -5 8 -3 3 6 -6 10 -4 12 9 7 9 -4 15 -3 13
1 -7 10 19 32 29 24 4 -4 1 4 -8 18 -8 13 -26 28 -39 31 -14 4 11 7 57 8 99 1
230 -21 321 -53 37 -14 69 -23 71 -21 8 7 -73 37 -167 61 -79 20 -115 24 -235
23 -77 -1 -152 -4 -166 -6z m117 -47 c0 -8 -6 -12 -15 -9 -11 5 -11 7 0 14 7
5 13 9 14 9 0 0 1 -6 1 -14z m-120 -2 c-3 -3 -12 -4 -19 -1 -8 3 -5 6 6 6 11
1 17 -2 13 -5z m-87 -14 c-8 -5 -19 -10 -25 -10 -5 0 -3 5 5 10 8 5 20 10 25
10 6 0 3 -5 -5 -10z m-20 -27 c0 -2 -6 -3 -14 -1 -8 2 -14 -1 -13 -7 1 -5 8
-9 17 -7 13 2 13 2 0 -7 -19 -14 -43 -14 -35 -1 3 6 1 10 -6 10 -7 0 -4 6 6
14 17 12 45 12 45 -1z m187 11 c-3 -3 -12 -4 -19 -1 -8 3 -5 6 6 6 11 1 17 -2
13 -5z"/>
<path d="M1521 2046 c3 -3 44 -13 92 -21 101 -18 182 -53 224 -98 36 -38 50
-81 25 -73 -76 24 -163 36 -254 36 -100 0 -108 -2 -137 -26 -29 -24 -31 -30
-31 -99 0 -57 -3 -74 -16 -79 -9 -3 -20 -3 -25 0 -5 3 -8 0 -7 -7 6 -25 -255
-86 -317 -75 -25 5 -54 23 -88 56 -61 58 -78 57 -21 -1 47 -49 83 -69 122 -69
16 0 34 -6 40 -12 24 -31 64 -173 101 -362 74 -376 83 -454 88 -760 l5 -280
28 -28 c26 -25 35 -28 97 -28 106 0 233 39 233 71 0 7 -6 6 -17 -2 -14 -12
-15 -12 -9 0 5 8 3 17 -5 23 -11 8 -10 9 4 4 14 -5 17 2 19 42 l1 47 7 -45 c7
-45 7 -45 8 15 0 84 -14 244 -17 185 -1 -25 -6 -54 -11 -65 -7 -15 -8 -12 -5
15 12 100 16 192 7 187 -5 -4 -8 15 -5 46 2 40 1 47 -7 32 -8 -16 -9 -13 -4
13 8 43 -26 238 -38 220 -5 -8 -6 2 -2 25 4 22 2 37 -4 37 -5 0 -8 10 -6 23 3
12 -2 47 -11 77 -9 35 -13 43 -11 22 4 -45 -10 -26 -17 23 -5 27 -3 35 3 25 8
-12 10 -11 9 5 -1 29 -17 74 -18 53 -1 -22 -17 -23 -25 -2 -3 8 -2 13 3 10 9
-6 21 16 21 37 0 7 -4 6 -10 -3 -11 -18 -12 -16 -15 65 -2 62 -59 250 -87 289
-11 16 -17 26 -11 23 5 -3 7 9 5 28 -2 18 1 36 7 39 6 4 11 36 11 71 0 53 4
69 24 92 23 27 29 28 124 31 78 3 119 -1 183 -17 46 -12 89 -21 96 -21 18 0
16 36 -4 67 -9 14 -18 35 -18 46 -2 21 -70 87 -89 87 -6 0 0 -8 14 -16 14 -9
36 -30 50 -47 l25 -31 -45 30 c-25 17 -67 39 -95 48 -49 17 -206 35 -194 22z
m-264 -452 c-3 -3 -12 -4 -19 -1 -8 3 -5 6 6 6 11 1 17 -2 13 -5z m-87 -24
c-7 -4 -9 -13 -6 -19 4 -6 5 -11 2 -11 -3 0 -10 10 -17 21 -8 15 -8 19 0 15 6
-4 11 -2 11 4 0 6 5 8 11 4 8 -5 8 -9 -1 -14z m19 -85 c0 -5 -4 -3 -9 5 -5 8
-9 22 -9 30 0 16 17 -16 18 -35z m311 -88 c0 -5 -4 -5 -10 -2 -5 3 -10 14 -10
23 0 15 2 15 10 2 5 -8 10 -19 10 -23z m-42 -2 c-3 -3 -9 2 -12 12 -6 14 -5
15 5 6 7 -7 10 -15 7 -18z m-5 -106 c-8 -8 -13 -7 -18 2 -5 8 -4 10 3 5 7 -4
12 -2 12 5 0 7 3 9 7 6 4 -4 2 -12 -4 -18z m-188 -98 c3 -5 1 -12 -5 -16 -5
-3 -10 1 -10 9 0 18 6 21 15 7z m15 -65 c0 -3 -4 -8 -10 -11 -5 -3 -10 -1 -10
4 0 6 5 11 10 11 6 0 10 -2 10 -4z m-3 -68 c-3 -7 -5 -2 -5 12 0 14 2 19 5 13
2 -7 2 -19 0 -25z m278 2 c3 -5 1 -10 -4 -10 -6 0 -11 5 -11 10 0 6 2 10 4 10
3 0 8 -4 11 -10z m-256 -63 c0 -21 -1 -21 -9 -2 -12 28 -12 37 0 30 6 -3 10
-16 9 -28z m268 11 c-3 -8 -6 -5 -6 6 -1 11 2 17 5 13 3 -3 4 -12 1 -19z m53
-182 c0 -26 -6 -18 -14 19 -5 22 -4 26 4 15 5 -8 10 -24 10 -34z m-273 -28
c-3 -8 -6 -5 -6 6 -1 11 2 17 5 13 3 -3 4 -12 1 -19z m280 -20 c-3 -8 -6 -5
-6 6 -1 11 2 17 5 13 3 -3 4 -12 1 -19z m-300 -35 c-3 -10 -5 -4 -5 12 0 17 2
24 5 18 2 -7 2 -21 0 -30z m60 -135 c-3 -8 -6 -5 -6 6 -1 11 2 17 5 13 3 -3 4
-12 1 -19z m-40 -110 c-3 -8 -6 -5 -6 6 -1 11 2 17 5 13 3 -3 4 -12 1 -19z
m290 -40 c-3 -7 -5 -2 -5 12 0 14 2 19 5 13 2 -7 2 -19 0 -25z m-296 -255 c-3
-7 -7 9 -8 35 -1 45 0 45 7 12 5 -19 5 -40 1 -47z m270 34 c-10 -9 -11 -8 -5
6 3 10 9 15 12 12 3 -3 0 -11 -7 -18z m-26 -85 c-3 -3 -11 0 -18 7 -9 10 -8
11 6 5 10 -3 15 -9 12 -12z m-35 -2 c13 -9 13 -10 0 -10 -8 0 -22 5 -30 10
-13 9 -13 10 0 10 8 0 22 -5 30 -10z m-63 -16 c-3 -3 -12 -4 -19 -1 -8 3 -5 6
6 6 11 1 17 -2 13 -5z"/>
<path d="M590 1940 c-20 -6 -21 -8 -5 -8 11 -1 38 3 60 7 l40 9 -35 0 c-19 0
-46 -4 -60 -8z"/>
<path d="M538 1923 c7 -3 16 -2 19 1 4 3 -2 6 -13 5 -11 0 -14 -3 -6 -6z"/>
<path d="M435 1891 c-3 -6 4 -15 15 -21 11 -6 18 -15 15 -20 -3 -4 0 -10 5
-12 33 -11 59 -277 32 -325 -12 -22 -11 -23 25 -22 34 1 35 2 11 8 -21 5 -25
9 -18 21 13 20 13 163 -1 235 -14 76 -67 162 -84 136z"/>
<path d="M380 1839 c-6 -11 -10 -25 -8 -30 2 -5 8 4 15 21 13 34 9 40 -7 9z"/>
<path d="M362 1760 c0 -14 2 -19 5 -12 2 6 2 18 0 25 -3 6 -5 1 -5 -13z"/>
<path d="M958 1728 c5 -5 16 -8 23 -6 8 3 3 7 -10 11 -17 4 -21 3 -13 -5z"/>
<path d="M391 1600 c0 -8 6 -26 15 -40 l15 -25 -7 25 c-3 14 -10 32 -15 40 -7
13 -8 13 -8 0z"/>
<path d="M590 1510 c-20 -6 -21 -8 -5 -8 11 0 29 3 40 8 25 11 -1 11 -35 0z"/>
</g>
</svg>
