<?xml version="1.0" standalone="no"?>
<!DOCTYPE svg PUBLIC "-//W3C//DTD SVG 20010904//EN"
 "http://www.w3.org/TR/2001/REC-SVG-20010904/DTD/svg10.dtd">
<svg version="1.0" xmlns="http://www.w3.org/2000/svg"
 width="225.000000pt" height="225.000000pt" viewBox="0 0 225.000000 225.000000"
 preserveAspectRatio="xMidYMid meet">

<g transform="translate(0.000000,225.000000) scale(0.100000,-0.100000)"
fill="#000000" stroke="none">
<path d="M533 1676 c-15 -19 -54 -80 -86 -136 l-58 -101 5 -157 c2 -86 4 -165
4 -174 0 -24 -1 -355 -1 -370 1 -7 -1 -88 -4 -180 -4 -158 -3 -168 17 -188 20
-20 28 -20 715 -20 687 0 695 0 715 20 20 20 21 30 17 188 -3 92 -5 173 -4
180 0 15 -1 346 -1 370 0 9 2 88 4 174 l5 157 -58 101 c-32 56 -71 117 -86
136 l-28 34 -564 0 -564 0 -28 -34z m1203 -88 l54 -88 -665 0 -664 0 28 48
c16 27 41 68 56 90 l28 42 554 -2 555 -3 54 -87z m84 -147 c5 -11 10 -80 10
-155 0 -109 -3 -138 -16 -150 -14 -14 -90 -16 -689 -16 -599 0 -675 2 -689 16
-13 12 -16 41 -16 150 0 75 5 144 10 155 10 18 29 19 695 19 666 0 685 -1 695
-19z m-2 -363 c15 -15 17 -281 2 -309 -10 -18 -29 -19 -695 -19 -666 0 -685 1
-695 19 -15 28 -13 294 2 309 17 17 1369 17 1386 0z m0 -370 c15 -15 17 -281
2 -309 -10 -18 -29 -19 -695 -19 -666 0 -685 1 -695 19 -15 28 -13 294 2 309
17 17 1369 17 1386 0z"/>
<path d="M1460 1295 c0 -88 1 -95 20 -95 19 0 20 7 20 95 0 88 -1 95 -20 95
-19 0 -20 -7 -20 -95z"/>
<path d="M1560 1295 c0 -88 1 -95 20 -95 19 0 20 7 20 95 0 88 -1 95 -20 95
-19 0 -20 -7 -20 -95z"/>
<path d="M1660 1295 c0 -95 0 -95 25 -95 25 0 25 0 25 95 0 95 0 95 -25 95
-25 0 -25 0 -25 -95z"/>
<path d="M610 1295 l0 -65 310 0 310 0 0 65 0 65 -310 0 -310 0 0 -65z"/>
<path d="M499 1314 c-17 -21 0 -49 32 -49 27 0 37 28 19 50 -16 19 -34 19 -51
-1z"/>
<path d="M1460 925 c0 -88 1 -95 20 -95 19 0 20 7 20 95 0 88 -1 95 -20 95
-19 0 -20 -7 -20 -95z"/>
<path d="M1560 925 c0 -88 1 -95 20 -95 19 0 20 7 20 95 0 88 -1 95 -20 95
-19 0 -20 -7 -20 -95z"/>
<path d="M1660 925 c0 -95 0 -95 25 -95 25 0 25 0 25 95 0 95 0 95 -25 95 -25
0 -25 0 -25 -95z"/>
<path d="M610 925 l0 -65 310 0 310 0 0 65 0 65 -310 0 -310 0 0 -65z"/>
<path d="M506 947 c-26 -19 -13 -57 20 -57 28 0 42 25 27 48 -13 22 -26 24
-47 9z"/>
<path d="M1460 550 c0 -93 1 -100 20 -100 19 0 20 7 20 100 0 93 -1 100 -20
100 -19 0 -20 -7 -20 -100z"/>
<path d="M1560 550 c0 -93 1 -100 20 -100 19 0 20 7 20 100 0 93 -1 100 -20
100 -19 0 -20 -7 -20 -100z"/>
<path d="M1660 550 l0 -100 25 0 25 0 0 100 0 100 -25 0 -25 0 0 -100z"/>
<path d="M610 550 l0 -60 310 0 310 0 0 60 0 60 -310 0 -310 0 0 -60z"/>
<path d="M497 566 c-11 -28 4 -47 32 -44 20 2 26 8 26 28 0 20 -6 26 -26 28
-17 2 -29 -3 -32 -12z"/>
</g>
</svg>
